<svg id="Layer_1" data-name="Layer 1" xmlns="http://www.w3.org/2000/svg" width="44.2" height="45.73" viewBox="0 0 44.2 45.73"><defs><style>.cls-1{fill:#cbbba0;}.cls-2{fill:#f39200;}</style></defs><path class="cls-1" d="M11.19,36.66l-.21.82.1.67.43.7.87.44.82-.24L22.07,26.6l9.37,12.45.75.24.9-.2.65-.9V37L23.43,24.56l3.09-4.2,1-.83,1.73-1.06,1.5-1.14,6.39-9.66L31.51,14.5l-.36-.35,4.78-7.37-.09-.08-5.37,6.9L30,13.41l5-7.78L29.43,12.5l-.4-.23,5-7.62-7,8-.75,1.65-.58,2.16-.21,1.14-.36,1.06-3.05,4.16L9.5,5.9,8.93,6l-.25.75.25,2.08L10,11.64l1.51,2.47,1.54,2.2,1.87,2,1,1.06,1.29,1.06.4.24,3.05,3.93Z"/><path class="cls-2" d="M22,29.74a6.41,6.41,0,0,1-2.35,5.35q-2.36,1.84-6.93,1.85H3.38V11.27h9.28a10.05,10.05,0,0,1,5.91,1.47,5.32,5.32,0,0,1,2.05,4.67,9.77,9.77,0,0,1-.17,1.84A5.37,5.37,0,0,1,19.8,21a4.84,4.84,0,0,1-3.39,2.39,7.25,7.25,0,0,1,2.89.79A4.89,4.89,0,0,1,21,25.71a5.28,5.28,0,0,1,.8,2A11.47,11.47,0,0,1,22,29.74ZM5.25,22.55h6.89a9.14,9.14,0,0,0,5-1.1,4.16,4.16,0,0,0,1.62-3.71,4.09,4.09,0,0,0-1.5-3.48,8,8,0,0,0-4.81-1.14l-7.24,0Zm0,12.51h7.43q7.26,0,7.27-5.32a6.85,6.85,0,0,0-.38-2.39,3.51,3.51,0,0,0-1.28-1.65,6.35,6.35,0,0,0-2.39-1,18.45,18.45,0,0,0-3.74-.32H5.25Z"/><path class="cls-2" d="M22.41,27.67a5.11,5.11,0,0,1,.8-2A4.89,4.89,0,0,1,24.9,24.2a7.21,7.21,0,0,1,2.89-.79,5.05,5.05,0,0,1-2.11-.92A5.1,5.1,0,0,1,24.39,21a5.59,5.59,0,0,1-.64-1.77,9.8,9.8,0,0,1-.18-1.84,5.35,5.35,0,0,1,2.05-4.67,10.09,10.09,0,0,1,5.92-1.47h9.28V36.94H31.49q-4.56,0-6.92-1.85a6.41,6.41,0,0,1-2.36-5.35A11.5,11.5,0,0,1,22.41,27.67ZM39,24.42H32a18.52,18.52,0,0,0-3.74.32,6.42,6.42,0,0,0-2.39,1,3.49,3.49,0,0,0-1.27,1.65,6.85,6.85,0,0,0-.38,2.39q0,5.32,7.27,5.32H39Zm0-11.27-7.24,0a8,8,0,0,0-4.81,1.14,4.09,4.09,0,0,0-1.5,3.48A4.16,4.16,0,0,0,27,21.45a9.14,9.14,0,0,0,5,1.1H39Z"/></svg>
