<svg id="Layer_1" data-name="Layer 1" xmlns="http://www.w3.org/2000/svg" width="90.03" height="45.73" viewBox="0 0 90.03 45.73"><defs><style>.cls-1{fill:#f39200;}.cls-2{fill:#cbbba0;}</style></defs><path class="cls-1" d="M71.4,31.54l-.08.28,0,.22.15.24.29.15.28-.08,3-4.25,3.19,4.25.26.08.31-.07.22-.3v-.41l-3.52-4.24L76.63,26l.35-.28.59-.36.51-.39,2.18-3.29L78.33,24l-.12-.12,1.62-2.52,0,0L78,23.67l-.14-.07L79.54,21,77.62,23.3l-.14-.08,1.7-2.6-2.37,2.72-.26.56-.19.74-.08.38-.12.37-1,1.42L70.82,21l-.19,0-.09.26.09.71L71,23l.52.84.53.75.63.7.33.36.44.36.14.09,1,1.33Z"/><path class="cls-2" d="M23.62,13h.86v8.88h-.86Z"/><path class="cls-2" d="M27.6,19.35a3.29,3.29,0,0,0,.33.82,2.33,2.33,0,0,0,.8.76,2.43,2.43,0,0,0,1.21.28,2.26,2.26,0,0,0,1.56-.51,1.57,1.57,0,0,0,.56-1.2,1.39,1.39,0,0,0-.51-1.08A4.57,4.57,0,0,0,30,17.75a6.19,6.19,0,0,1-2.29-1.07,1.93,1.93,0,0,1-.69-1.5,2.21,2.21,0,0,1,.77-1.68,2.85,2.85,0,0,1,2-.71,3.6,3.6,0,0,1,1.42.28,2.91,2.91,0,0,1,1.12.84,2.8,2.8,0,0,1,.49,1l-.9.27A2.25,2.25,0,0,0,31.12,14a2.18,2.18,0,0,0-1.34-.42,1.91,1.91,0,0,0-1.33.45,1.38,1.38,0,0,0-.51,1.06,1.3,1.3,0,0,0,.41.92,4.61,4.61,0,0,0,1.79.81,5.32,5.32,0,0,1,2.25,1.08A2.13,2.13,0,0,1,33,19.44a2.38,2.38,0,0,1-.84,1.83,3.22,3.22,0,0,1-2.23.75,3.78,3.78,0,0,1-1.59-.34,3.06,3.06,0,0,1-1.17-1,3.16,3.16,0,0,1-.5-1.12Z"/><path class="cls-2" d="M34.22,13h6.51v.85H37.92v8h-.87v-8H34.22Z"/><path class="cls-2" d="M42.4,13h2.72a5.14,5.14,0,0,1,1.88.28,2.38,2.38,0,0,1,1.11.85,2.15,2.15,0,0,1,.41,1.29A2.09,2.09,0,0,1,48,16.74a2.89,2.89,0,0,1-1.47.9l2.16,4.2H47.8l-2.09-4H43.27v4H42.4Zm.87.77v3.32h1.89a4.33,4.33,0,0,0,1.37-.23,1.44,1.44,0,0,0,.76-.55,1.55,1.55,0,0,0,.26-.91A1.5,1.5,0,0,0,47,14.19a2.3,2.3,0,0,0-1.57-.46Z"/><path class="cls-2" d="M53.3,22a3.27,3.27,0,0,1-2.55-1.13,5,5,0,0,1-1.17-3.41A6.45,6.45,0,0,1,50.05,15a3.59,3.59,0,0,1,1.35-1.68,3.45,3.45,0,0,1,1.9-.55,3.12,3.12,0,0,1,1.6.4,3.6,3.6,0,0,1,1.15,1,4.75,4.75,0,0,1,.67,1.46A6.1,6.1,0,0,1,57,17.43a5.85,5.85,0,0,1-.24,1.76,5.28,5.28,0,0,1-.6,1.26,4.4,4.4,0,0,1-.7.8A3.55,3.55,0,0,1,53.3,22Zm-.09-.8a2.49,2.49,0,0,0,2-1,4.18,4.18,0,0,0,.82-2.8,4.75,4.75,0,0,0-.89-3.05,2.26,2.26,0,0,0-1.84-.85,2.39,2.39,0,0,0-1.9,1,4.42,4.42,0,0,0-.81,2.9,4.33,4.33,0,0,0,.8,2.84A2.35,2.35,0,0,0,53.21,21.22Z"/><path class="cls-2" d="M25.26,27.36h1.38l2.85,8.88h-.87l-.89-2.75H24.14l-.89,2.75h-.88ZM26,28l-1.53,4.68h3Z"/><path class="cls-2" d="M31,27.36h3a3.65,3.65,0,0,1,2.38.68,2,2,0,0,1,.81,1.56,2,2,0,0,1-.4,1.16,2.86,2.86,0,0,1-1.22.9,3,3,0,0,1,1.39.95,2,2,0,0,1,.46,1.24,2.16,2.16,0,0,1-.86,1.65,3.52,3.52,0,0,1-2.4.74H31Zm.85.79V31.3h1.61a3.84,3.84,0,0,0,2.21-.46,1.38,1.38,0,0,0,.61-1.14,1.4,1.4,0,0,0-.54-1.1,2.56,2.56,0,0,0-1.65-.45Zm0,3.92v3.39h2.33A2.78,2.78,0,0,0,36,34.87a1.34,1.34,0,0,0,.51-1.11,1.39,1.39,0,0,0-.3-.87,1.78,1.78,0,0,0-.9-.61A4.17,4.17,0,0,0,34,32.07Z"/><path class="cls-2" d="M38.83,27.36h.86v5.81a2.34,2.34,0,0,0,.62,1.73,2.29,2.29,0,0,0,1.7.63,2.76,2.76,0,0,0,1.37-.29,1.77,1.77,0,0,0,.79-.85,2.76,2.76,0,0,0,.27-1.22V27.36h.86v5.81a3.22,3.22,0,0,1-.87,2.37,3.1,3.1,0,0,1-2.32.88,3.6,3.6,0,0,1-1.94-.49,2.57,2.57,0,0,1-1.05-1.25,3.93,3.93,0,0,1-.29-1.38Z"/><path class="cls-2" d="M48.12,33.75a3.29,3.29,0,0,0,.33.82,2.33,2.33,0,0,0,.8.76,2.43,2.43,0,0,0,1.21.28A2.26,2.26,0,0,0,52,35.1a1.57,1.57,0,0,0,.56-1.2,1.39,1.39,0,0,0-.51-1.08,4.57,4.57,0,0,0-1.58-.67,6.19,6.19,0,0,1-2.29-1.07,1.93,1.93,0,0,1-.69-1.5,2.21,2.21,0,0,1,.77-1.68,2.84,2.84,0,0,1,2-.71,3.61,3.61,0,0,1,1.43.28,2.91,2.91,0,0,1,1.12.84,3,3,0,0,1,.49,1l-.9.27a2.25,2.25,0,0,0-.78-1.21A2.18,2.18,0,0,0,50.3,28a1.91,1.91,0,0,0-1.33.45,1.37,1.37,0,0,0-.51,1.06,1.3,1.3,0,0,0,.41.92,4.61,4.61,0,0,0,1.79.81,5.38,5.38,0,0,1,2.25,1.08,2.13,2.13,0,0,1,.62,1.56,2.38,2.38,0,0,1-.84,1.83,3.22,3.22,0,0,1-2.23.75,3.78,3.78,0,0,1-1.59-.34,3.06,3.06,0,0,1-1.17-1A3.16,3.16,0,0,1,47.2,34Z"/><path class="cls-2" d="M55.49,27.36h.85v3.76h4.71V27.36h.87v8.88h-.87V32H56.34v4.25h-.85Z"/><path class="cls-2" d="M64.42,27.36h.86v4.58l4.15-4.58h1.13l-3.07,3.37L71,36.24H70l-3.07-4.87-1.64,1.79v3.08h-.86Z"/><path class="cls-2" d="M74.3,27.36h1.38l2.84,8.88h-.86l-.89-2.75H73.18l-.9,2.75h-.87ZM75,28l-1.53,4.68h3Z"/><path class="cls-1" d="M22,29.74a6.41,6.41,0,0,1-2.35,5.35q-2.36,1.84-6.93,1.85H3.38V11.27h9.28a10.05,10.05,0,0,1,5.91,1.47,5.33,5.33,0,0,1,2.06,4.67,9.8,9.8,0,0,1-.18,1.84A5.59,5.59,0,0,1,19.81,21a5.26,5.26,0,0,1-1.29,1.47,5.05,5.05,0,0,1-2.11.92,7.25,7.25,0,0,1,2.89.79A4.89,4.89,0,0,1,21,25.71a5.28,5.28,0,0,1,.8,2A11.47,11.47,0,0,1,22,29.74ZM5.25,22.55h6.89a9.14,9.14,0,0,0,5-1.1,4.16,4.16,0,0,0,1.62-3.71,4.09,4.09,0,0,0-1.5-3.48,8,8,0,0,0-4.81-1.14l-7.24,0Zm0,12.51h7.43q7.26,0,7.27-5.32a6.85,6.85,0,0,0-.38-2.39,3.51,3.51,0,0,0-1.28-1.65,6.35,6.35,0,0,0-2.39-1,18.45,18.45,0,0,0-3.74-.32H5.25Z"/></svg>
